# xmcd
#
# Track frame offsets: 
#        150
#        10521
#        20309
#        30721
#        40364
#        50985
#        61016
#        72705
#        81889
#        93436
#        104862
#        115613
#        126304
#        136388
#        149776
#        159449
#        169934
#        181246
#        191565
#        201726
#        211450
#        220867
#        231259
#        241609
#        252543
#        265012
#        275188
#        284605
#        294978
#        306943
#
# Disc length: 4223 seconds
#
# Revision: 0
# Processed by: cddbd v1.5.2PL0 Copyright (c) Steve Scherf et al.
# Submitted via: ExactAudioCopy v0.99pb5
#
DISCID=db107d1e
DTITLE=Chet Atkins - Teensville plus Stringin' Along With Chet Atkins
DYEAR=2014
DGENRE=Country
TTITLE0=White Silver Sands
TTITLE1=Boo Boo Stick Beat
TTITLE2=Oh, Lonesome Me
TTITLE3=One Mint Julep
TTITLE4=take A Message To Mary
TTITLE5=Teensville
TTITLE6=Night Train
TTITLE7=Come Softly To Me
TTITLE8=Sleep Walk
TTITLE9=Django's  Castle
TTITLE10=Till There Was You
TTITLE11=Hot Toddy
TTITLE12=Oh Baby Jingo!
TTITLE13=Indian Love Call
TTITLE14=Memphis Blues
TTITLE15=12th Street Rag
TTITLE16=Gallopin' Guitar
TTITLE17=St. Louis Blues
TTITLE18=Main Street Breakdown
TTITLE19=Hello Ma Baby
TTITLE20=Alice Blue Gown
TTITLE21=Blue Gypsy
TTITLE22=Black Mountain Rag
TTITLE23=''The 3rd Man'' Theme
TTITLE24=South
TTITLE25=Little Rock Gateway
TTITLE26=Slinkey
TTITLE27=Bill Bailey
TTITLE28=Have You Ever Been Lonely
TTITLE29=Hot Mocking Bird
EXTD=
EXTT0=
EXTT1=
EXTT2=
EXTT3=
EXTT4=
EXTT5=
EXTT6=
EXTT7=
EXTT8=
EXTT9=
EXTT10=
EXTT11=
EXTT12=
EXTT13=
EXTT14=
EXTT15=
EXTT16=
EXTT17=
EXTT18=
EXTT19=
EXTT20=
EXTT21=
EXTT22=
EXTT23=
EXTT24=
EXTT25=
EXTT26=
EXTT27=
EXTT28=
EXTT29=
PLAYORDER=
